<mxfile host="Electron" modified="2023-06-29T00:57:03.050Z" agent="Mozilla/5.0 (Windows NT 10.0; Win64; x64) AppleWebKit/537.36 (KHTML, like Gecko) draw.io/21.5.0 Chrome/112.0.5615.204 Electron/24.5.1 Safari/537.36" etag="hJesgzEyTHCQStyRIPV9" version="21.5.0" type="device">
  <diagram name="PÃ¡gina-1" id="kzRmNbPj0zxakM7UvcY1">
    <mxGraphModel dx="1144" dy="1899" grid="1" gridSize="10" guides="1" tooltips="1" connect="1" arrows="1" fold="1" page="1" pageScale="1" pageWidth="827" pageHeight="1169" math="0" shadow="0">
      <root>
        <mxCell id="0" />
        <mxCell id="1" parent="0" />
        <mxCell id="KgwVRd0RSulIxaePryn2-38" style="edgeStyle=orthogonalEdgeStyle;rounded=0;orthogonalLoop=1;jettySize=auto;html=1;" edge="1" parent="1" source="KgwVRd0RSulIxaePryn2-1" target="KgwVRd0RSulIxaePryn2-17">
          <mxGeometry relative="1" as="geometry" />
        </mxCell>
        <mxCell id="KgwVRd0RSulIxaePryn2-40" style="edgeStyle=orthogonalEdgeStyle;rounded=0;orthogonalLoop=1;jettySize=auto;html=1;" edge="1" parent="1" source="KgwVRd0RSulIxaePryn2-1" target="KgwVRd0RSulIxaePryn2-13">
          <mxGeometry relative="1" as="geometry" />
        </mxCell>
        <mxCell id="KgwVRd0RSulIxaePryn2-1" value="Propiedad" style="swimlane;fontStyle=1;align=center;verticalAlign=top;childLayout=stackLayout;horizontal=1;startSize=26;horizontalStack=0;resizeParent=1;resizeParentMax=0;resizeLast=0;collapsible=1;marginBottom=0;whiteSpace=wrap;html=1;" vertex="1" parent="1">
          <mxGeometry x="605" y="-15" width="490" height="200" as="geometry" />
        </mxCell>
        <mxCell id="KgwVRd0RSulIxaePryn2-2" value="- precioNoche: Real&lt;br&gt;- nombre: String&lt;br&gt;- direccion: String" style="text;strokeColor=none;fillColor=none;align=left;verticalAlign=top;spacingLeft=4;spacingRight=4;overflow=hidden;rotatable=0;points=[[0,0.5],[1,0.5]];portConstraint=eastwest;whiteSpace=wrap;html=1;" vertex="1" parent="KgwVRd0RSulIxaePryn2-1">
          <mxGeometry y="26" width="490" height="54" as="geometry" />
        </mxCell>
        <mxCell id="KgwVRd0RSulIxaePryn2-3" value="" style="line;strokeWidth=1;fillColor=none;align=left;verticalAlign=middle;spacingTop=-1;spacingLeft=3;spacingRight=3;rotatable=0;labelPosition=right;points=[];portConstraint=eastwest;strokeColor=inherit;" vertex="1" parent="KgwVRd0RSulIxaePryn2-1">
          <mxGeometry y="80" width="490" height="8" as="geometry" />
        </mxCell>
        <mxCell id="KgwVRd0RSulIxaePryn2-4" value="+&amp;lt;&amp;lt;create&amp;gt;&amp;gt; Propiedad(precioNoche: Real, nombre:String, direccion: String):Propiedad&lt;br&gt;+ agregarReglaRango(porcentaje:Integer, from:Date, to:Date, aumenta:Boolean): RangoFechas&lt;br&gt;+ agregarReglaEstancia(porcentaje:Integer, cantMinimaDias:Integer):EstanciaProlongada&lt;br&gt;+ crearReserva(inquilino: Usuario, from:Date, to:Date):Reserva&lt;br&gt;+precioBase(cantDias: Integer, precioNoche:Real):Real&lt;br&gt;- disponible(from:Date, to:Date): Boolean" style="text;strokeColor=none;fillColor=none;align=left;verticalAlign=top;spacingLeft=4;spacingRight=4;overflow=hidden;rotatable=0;points=[[0,0.5],[1,0.5]];portConstraint=eastwest;whiteSpace=wrap;html=1;" vertex="1" parent="KgwVRd0RSulIxaePryn2-1">
          <mxGeometry y="88" width="490" height="112" as="geometry" />
        </mxCell>
        <mxCell id="KgwVRd0RSulIxaePryn2-33" style="edgeStyle=orthogonalEdgeStyle;rounded=0;orthogonalLoop=1;jettySize=auto;html=1;" edge="1" parent="1" source="KgwVRd0RSulIxaePryn2-5" target="KgwVRd0RSulIxaePryn2-9">
          <mxGeometry relative="1" as="geometry" />
        </mxCell>
        <mxCell id="KgwVRd0RSulIxaePryn2-5" value="Sistema" style="swimlane;fontStyle=1;align=center;verticalAlign=top;childLayout=stackLayout;horizontal=1;startSize=26;horizontalStack=0;resizeParent=1;resizeParentMax=0;resizeLast=0;collapsible=1;marginBottom=0;whiteSpace=wrap;html=1;" vertex="1" parent="1">
          <mxGeometry x="350" y="-179" width="220" height="64" as="geometry" />
        </mxCell>
        <mxCell id="KgwVRd0RSulIxaePryn2-7" value="" style="line;strokeWidth=1;fillColor=none;align=left;verticalAlign=middle;spacingTop=-1;spacingLeft=3;spacingRight=3;rotatable=0;labelPosition=right;points=[];portConstraint=eastwest;strokeColor=inherit;" vertex="1" parent="KgwVRd0RSulIxaePryn2-5">
          <mxGeometry y="26" width="220" height="8" as="geometry" />
        </mxCell>
        <mxCell id="KgwVRd0RSulIxaePryn2-8" value="+ registrarUsuario(dni:Integer): Usuario" style="text;strokeColor=none;fillColor=none;align=left;verticalAlign=top;spacingLeft=4;spacingRight=4;overflow=hidden;rotatable=0;points=[[0,0.5],[1,0.5]];portConstraint=eastwest;whiteSpace=wrap;html=1;" vertex="1" parent="KgwVRd0RSulIxaePryn2-5">
          <mxGeometry y="34" width="220" height="30" as="geometry" />
        </mxCell>
        <mxCell id="KgwVRd0RSulIxaePryn2-34" style="edgeStyle=orthogonalEdgeStyle;rounded=0;orthogonalLoop=1;jettySize=auto;html=1;" edge="1" parent="1" source="KgwVRd0RSulIxaePryn2-9" target="KgwVRd0RSulIxaePryn2-1">
          <mxGeometry relative="1" as="geometry" />
        </mxCell>
        <mxCell id="KgwVRd0RSulIxaePryn2-9" value="Usuario" style="swimlane;fontStyle=1;align=center;verticalAlign=top;childLayout=stackLayout;horizontal=1;startSize=26;horizontalStack=0;resizeParent=1;resizeParentMax=0;resizeLast=0;collapsible=1;marginBottom=0;whiteSpace=wrap;html=1;" vertex="1" parent="1">
          <mxGeometry x="730" y="-202" width="240" height="110" as="geometry" />
        </mxCell>
        <mxCell id="KgwVRd0RSulIxaePryn2-10" value="- dni: Integer" style="text;strokeColor=none;fillColor=none;align=left;verticalAlign=top;spacingLeft=4;spacingRight=4;overflow=hidden;rotatable=0;points=[[0,0.5],[1,0.5]];portConstraint=eastwest;whiteSpace=wrap;html=1;" vertex="1" parent="KgwVRd0RSulIxaePryn2-9">
          <mxGeometry y="26" width="240" height="26" as="geometry" />
        </mxCell>
        <mxCell id="KgwVRd0RSulIxaePryn2-11" value="" style="line;strokeWidth=1;fillColor=none;align=left;verticalAlign=middle;spacingTop=-1;spacingLeft=3;spacingRight=3;rotatable=0;labelPosition=right;points=[];portConstraint=eastwest;strokeColor=inherit;" vertex="1" parent="KgwVRd0RSulIxaePryn2-9">
          <mxGeometry y="52" width="240" height="8" as="geometry" />
        </mxCell>
        <mxCell id="KgwVRd0RSulIxaePryn2-12" value="+&amp;lt;&amp;lt;create&amp;gt;&amp;gt;Usuario(dni:Integer):Usuario&lt;br&gt;+ agregarPropiedad(precioNoche:Real, nombre:String,direccion: String):Propiedad" style="text;strokeColor=none;fillColor=none;align=left;verticalAlign=top;spacingLeft=4;spacingRight=4;overflow=hidden;rotatable=0;points=[[0,0.5],[1,0.5]];portConstraint=eastwest;whiteSpace=wrap;html=1;" vertex="1" parent="KgwVRd0RSulIxaePryn2-9">
          <mxGeometry y="60" width="240" height="50" as="geometry" />
        </mxCell>
        <mxCell id="KgwVRd0RSulIxaePryn2-41" style="rounded=0;orthogonalLoop=1;jettySize=auto;html=1;" edge="1" parent="1" source="KgwVRd0RSulIxaePryn2-13" target="KgwVRd0RSulIxaePryn2-9">
          <mxGeometry relative="1" as="geometry" />
        </mxCell>
        <mxCell id="KgwVRd0RSulIxaePryn2-13" value="Reserva" style="swimlane;fontStyle=1;align=center;verticalAlign=top;childLayout=stackLayout;horizontal=1;startSize=26;horizontalStack=0;resizeParent=1;resizeParentMax=0;resizeLast=0;collapsible=1;marginBottom=0;whiteSpace=wrap;html=1;" vertex="1" parent="1">
          <mxGeometry x="170" y="20" width="230" height="130" as="geometry" />
        </mxCell>
        <mxCell id="KgwVRd0RSulIxaePryn2-14" value="- rango: DateLapse&lt;br&gt;- precioFinal" style="text;strokeColor=none;fillColor=none;align=left;verticalAlign=top;spacingLeft=4;spacingRight=4;overflow=hidden;rotatable=0;points=[[0,0.5],[1,0.5]];portConstraint=eastwest;whiteSpace=wrap;html=1;" vertex="1" parent="KgwVRd0RSulIxaePryn2-13">
          <mxGeometry y="26" width="230" height="44" as="geometry" />
        </mxCell>
        <mxCell id="KgwVRd0RSulIxaePryn2-15" value="" style="line;strokeWidth=1;fillColor=none;align=left;verticalAlign=middle;spacingTop=-1;spacingLeft=3;spacingRight=3;rotatable=0;labelPosition=right;points=[];portConstraint=eastwest;strokeColor=inherit;" vertex="1" parent="KgwVRd0RSulIxaePryn2-13">
          <mxGeometry y="70" width="230" height="8" as="geometry" />
        </mxCell>
        <mxCell id="KgwVRd0RSulIxaePryn2-16" value="+&amp;lt;&amp;lt;create&amp;gt;&amp;gt;Reserva(inquilino: Usuario, from:Date, to:Date):Reserva&lt;br&gt;+ disponible(from:Date, to:Date):Boolean" style="text;strokeColor=none;fillColor=none;align=left;verticalAlign=top;spacingLeft=4;spacingRight=4;overflow=hidden;rotatable=0;points=[[0,0.5],[1,0.5]];portConstraint=eastwest;whiteSpace=wrap;html=1;" vertex="1" parent="KgwVRd0RSulIxaePryn2-13">
          <mxGeometry y="78" width="230" height="52" as="geometry" />
        </mxCell>
        <mxCell id="KgwVRd0RSulIxaePryn2-17" value="&amp;lt;&amp;lt;abstract&amp;gt;&amp;gt;&lt;br&gt;Regla" style="swimlane;fontStyle=1;align=center;verticalAlign=top;childLayout=stackLayout;horizontal=1;startSize=40;horizontalStack=0;resizeParent=1;resizeParentMax=0;resizeLast=0;collapsible=1;marginBottom=0;whiteSpace=wrap;html=1;" vertex="1" parent="1">
          <mxGeometry x="685" y="250" width="330" height="160" as="geometry" />
        </mxCell>
        <mxCell id="KgwVRd0RSulIxaePryn2-18" value="- porcentaje: Integer&lt;br&gt;" style="text;strokeColor=none;fillColor=none;align=left;verticalAlign=top;spacingLeft=4;spacingRight=4;overflow=hidden;rotatable=0;points=[[0,0.5],[1,0.5]];portConstraint=eastwest;whiteSpace=wrap;html=1;" vertex="1" parent="KgwVRd0RSulIxaePryn2-17">
          <mxGeometry y="40" width="330" height="26" as="geometry" />
        </mxCell>
        <mxCell id="KgwVRd0RSulIxaePryn2-19" value="" style="line;strokeWidth=1;fillColor=none;align=left;verticalAlign=middle;spacingTop=-1;spacingLeft=3;spacingRight=3;rotatable=0;labelPosition=right;points=[];portConstraint=eastwest;strokeColor=inherit;" vertex="1" parent="KgwVRd0RSulIxaePryn2-17">
          <mxGeometry y="66" width="330" height="8" as="geometry" />
        </mxCell>
        <mxCell id="KgwVRd0RSulIxaePryn2-20" value="&lt;br&gt;+ &amp;lt;&amp;lt;abstract&amp;gt;&amp;gt;prioridad():Integer&lt;br&gt;+esUnica():Boolean&lt;br&gt;+&amp;lt;&amp;lt;abstract&amp;gt;&amp;gt;aplicarRegla(precioNoche:Real,from:Date,to:&lt;br&gt;Date,precioTotal:Real):Real" style="text;strokeColor=none;fillColor=none;align=left;verticalAlign=top;spacingLeft=4;spacingRight=4;overflow=hidden;rotatable=0;points=[[0,0.5],[1,0.5]];portConstraint=eastwest;whiteSpace=wrap;html=1;" vertex="1" parent="KgwVRd0RSulIxaePryn2-17">
          <mxGeometry y="74" width="330" height="86" as="geometry" />
        </mxCell>
        <mxCell id="KgwVRd0RSulIxaePryn2-37" style="rounded=0;orthogonalLoop=1;jettySize=auto;html=1;endArrow=block;endFill=0;" edge="1" parent="1" source="KgwVRd0RSulIxaePryn2-21" target="KgwVRd0RSulIxaePryn2-17">
          <mxGeometry relative="1" as="geometry" />
        </mxCell>
        <mxCell id="KgwVRd0RSulIxaePryn2-21" value="RangoFechas" style="swimlane;fontStyle=1;align=center;verticalAlign=top;childLayout=stackLayout;horizontal=1;startSize=26;horizontalStack=0;resizeParent=1;resizeParentMax=0;resizeLast=0;collapsible=1;marginBottom=0;whiteSpace=wrap;html=1;" vertex="1" parent="1">
          <mxGeometry x="430" y="500" width="290" height="170" as="geometry" />
        </mxCell>
        <mxCell id="KgwVRd0RSulIxaePryn2-22" value="- from: Date&lt;br&gt;- to: Date&lt;br&gt;- aumenta: Boolean" style="text;strokeColor=none;fillColor=none;align=left;verticalAlign=top;spacingLeft=4;spacingRight=4;overflow=hidden;rotatable=0;points=[[0,0.5],[1,0.5]];portConstraint=eastwest;whiteSpace=wrap;html=1;" vertex="1" parent="KgwVRd0RSulIxaePryn2-21">
          <mxGeometry y="26" width="290" height="54" as="geometry" />
        </mxCell>
        <mxCell id="KgwVRd0RSulIxaePryn2-23" value="" style="line;strokeWidth=1;fillColor=none;align=left;verticalAlign=middle;spacingTop=-1;spacingLeft=3;spacingRight=3;rotatable=0;labelPosition=right;points=[];portConstraint=eastwest;strokeColor=inherit;" vertex="1" parent="KgwVRd0RSulIxaePryn2-21">
          <mxGeometry y="80" width="290" height="8" as="geometry" />
        </mxCell>
        <mxCell id="KgwVRd0RSulIxaePryn2-24" value="+&amp;lt;&amp;lt;create&amp;gt;&amp;gt;RangoFechas(porcentaje:Integer, from:Date,to:Date, aumenta:Boolean):RangoFechas&lt;br&gt;+ prioridad(): Integer&lt;br&gt;+ aplicarRegla(precioNoche:Real,from:Date,to:Date&lt;br&gt;,precioTotal:Real):Real" style="text;strokeColor=none;fillColor=none;align=left;verticalAlign=top;spacingLeft=4;spacingRight=4;overflow=hidden;rotatable=0;points=[[0,0.5],[1,0.5]];portConstraint=eastwest;whiteSpace=wrap;html=1;" vertex="1" parent="KgwVRd0RSulIxaePryn2-21">
          <mxGeometry y="88" width="290" height="82" as="geometry" />
        </mxCell>
        <mxCell id="KgwVRd0RSulIxaePryn2-36" style="rounded=0;orthogonalLoop=1;jettySize=auto;html=1;endArrow=block;endFill=0;" edge="1" parent="1" source="KgwVRd0RSulIxaePryn2-25" target="KgwVRd0RSulIxaePryn2-17">
          <mxGeometry relative="1" as="geometry" />
        </mxCell>
        <mxCell id="KgwVRd0RSulIxaePryn2-25" value="EstanciaProlongada" style="swimlane;fontStyle=1;align=center;verticalAlign=top;childLayout=stackLayout;horizontal=1;startSize=26;horizontalStack=0;resizeParent=1;resizeParentMax=0;resizeLast=0;collapsible=1;marginBottom=0;whiteSpace=wrap;html=1;" vertex="1" parent="1">
          <mxGeometry x="930" y="480" width="320" height="150" as="geometry" />
        </mxCell>
        <mxCell id="KgwVRd0RSulIxaePryn2-26" value="- cantMinimaDias: Integer" style="text;strokeColor=none;fillColor=none;align=left;verticalAlign=top;spacingLeft=4;spacingRight=4;overflow=hidden;rotatable=0;points=[[0,0.5],[1,0.5]];portConstraint=eastwest;whiteSpace=wrap;html=1;" vertex="1" parent="KgwVRd0RSulIxaePryn2-25">
          <mxGeometry y="26" width="320" height="26" as="geometry" />
        </mxCell>
        <mxCell id="KgwVRd0RSulIxaePryn2-27" value="" style="line;strokeWidth=1;fillColor=none;align=left;verticalAlign=middle;spacingTop=-1;spacingLeft=3;spacingRight=3;rotatable=0;labelPosition=right;points=[];portConstraint=eastwest;strokeColor=inherit;" vertex="1" parent="KgwVRd0RSulIxaePryn2-25">
          <mxGeometry y="52" width="320" height="8" as="geometry" />
        </mxCell>
        <mxCell id="KgwVRd0RSulIxaePryn2-28" value="+&amp;lt;&amp;lt;create&amp;gt;&amp;gt; EstanciaProlongada(porcentaje:Integer, cantMinimaDias:Integer):EstanciaProlongada&lt;br&gt;+ priorirad():Integer&lt;br&gt;+ aplicarRegla(precioNoche:Real,from:Date,to:Date, precioTotal: Real):Real&lt;br&gt;+ esUnica():Boolean" style="text;strokeColor=none;fillColor=none;align=left;verticalAlign=top;spacingLeft=4;spacingRight=4;overflow=hidden;rotatable=0;points=[[0,0.5],[1,0.5]];portConstraint=eastwest;whiteSpace=wrap;html=1;" vertex="1" parent="KgwVRd0RSulIxaePryn2-25">
          <mxGeometry y="60" width="320" height="90" as="geometry" />
        </mxCell>
        <mxCell id="KgwVRd0RSulIxaePryn2-29" value="DateLapse" style="swimlane;fontStyle=1;align=center;verticalAlign=top;childLayout=stackLayout;horizontal=1;startSize=26;horizontalStack=0;resizeParent=1;resizeParentMax=0;resizeLast=0;collapsible=1;marginBottom=0;whiteSpace=wrap;html=1;" vertex="1" parent="1">
          <mxGeometry x="90" y="280" width="310" height="150" as="geometry" />
        </mxCell>
        <mxCell id="KgwVRd0RSulIxaePryn2-30" value="- from:Date&lt;br&gt;- to :Date" style="text;strokeColor=none;fillColor=none;align=left;verticalAlign=top;spacingLeft=4;spacingRight=4;overflow=hidden;rotatable=0;points=[[0,0.5],[1,0.5]];portConstraint=eastwest;whiteSpace=wrap;html=1;" vertex="1" parent="KgwVRd0RSulIxaePryn2-29">
          <mxGeometry y="26" width="310" height="34" as="geometry" />
        </mxCell>
        <mxCell id="KgwVRd0RSulIxaePryn2-31" value="" style="line;strokeWidth=1;fillColor=none;align=left;verticalAlign=middle;spacingTop=-1;spacingLeft=3;spacingRight=3;rotatable=0;labelPosition=right;points=[];portConstraint=eastwest;strokeColor=inherit;" vertex="1" parent="KgwVRd0RSulIxaePryn2-29">
          <mxGeometry y="60" width="310" height="8" as="geometry" />
        </mxCell>
        <mxCell id="KgwVRd0RSulIxaePryn2-32" value="+&amp;lt;&amp;lt;create&amp;gt;&amp;gt;DateLapse(from:Date, to:Date):DateLapse&lt;br&gt;+sizeInDays():Integer&lt;br&gt;+overlaps(dateLapse: DateLapse): Boolean&lt;br&gt;+ includesDate(fecha:Date):Boolean&lt;br&gt;+ daysThatOverlaps(dateLapse: DateLapse): Integer" style="text;strokeColor=none;fillColor=none;align=left;verticalAlign=top;spacingLeft=4;spacingRight=4;overflow=hidden;rotatable=0;points=[[0,0.5],[1,0.5]];portConstraint=eastwest;whiteSpace=wrap;html=1;" vertex="1" parent="KgwVRd0RSulIxaePryn2-29">
          <mxGeometry y="68" width="310" height="82" as="geometry" />
        </mxCell>
        <mxCell id="KgwVRd0RSulIxaePryn2-42" value="1&lt;br&gt;- inquilino" style="text;html=1;align=center;verticalAlign=middle;resizable=0;points=[];autosize=1;strokeColor=none;fillColor=none;" vertex="1" parent="1">
          <mxGeometry x="540" y="-70" width="70" height="40" as="geometry" />
        </mxCell>
        <mxCell id="KgwVRd0RSulIxaePryn2-43" value="0..*&lt;br&gt;- reservas" style="text;html=1;align=center;verticalAlign=middle;resizable=0;points=[];autosize=1;strokeColor=none;fillColor=none;" vertex="1" parent="1">
          <mxGeometry x="490" y="50" width="80" height="40" as="geometry" />
        </mxCell>
        <mxCell id="KgwVRd0RSulIxaePryn2-44" value="0..*&lt;br&gt;- usuarios" style="text;html=1;align=center;verticalAlign=middle;resizable=0;points=[];autosize=1;strokeColor=none;fillColor=none;" vertex="1" parent="1">
          <mxGeometry x="605" y="-190" width="80" height="40" as="geometry" />
        </mxCell>
        <mxCell id="KgwVRd0RSulIxaePryn2-45" value="0..*&lt;br&gt;- propiedades" style="text;html=1;align=center;verticalAlign=middle;resizable=0;points=[];autosize=1;strokeColor=none;fillColor=none;" vertex="1" parent="1">
          <mxGeometry x="760" y="-80" width="100" height="40" as="geometry" />
        </mxCell>
        <mxCell id="KgwVRd0RSulIxaePryn2-46" value="0..*&lt;br&gt;- reglas" style="text;html=1;align=center;verticalAlign=middle;resizable=0;points=[];autosize=1;strokeColor=none;fillColor=none;" vertex="1" parent="1">
          <mxGeometry x="790" y="190" width="60" height="40" as="geometry" />
        </mxCell>
      </root>
    </mxGraphModel>
  </diagram>
</mxfile>
